<svg width="30px" height="30px" viewBox="0 0 30 30" fill="none" xmlns="http://www.w3.org/2000/svg"><path d="M15.3 3.705a0.938 0.938 0 0 0 -0.725 0.345l-0.073 0.054a7.875 7.875 0 0 0 -7.832 1.941A7.75 7.75 0 0 0 4.5 12.934l-0.019 0.019 -1.198 1.188a2.637 2.637 0 0 0 0 3.745 2.675 2.675 0 0 0 2.241 0.75 2.661 2.661 0 0 0 2.354 1.948A2.662 2.662 0 0 0 10.4 23.012c0.033 0.634 0.291 1.258 0.777 1.74 0.95 0.944 2.44 1.025 3.484 0.245l0.484 0.48a2.688 2.688 0 0 0 3.785 0c0.463 -0.46 0.721 -1.046 0.775 -1.647a2.662 2.662 0 0 0 2.425 -2.415 2.662 2.662 0 0 0 2.338 -2.005 2.675 2.675 0 0 0 2.2 -0.756 2.637 2.637 0 0 0 0 -3.744l-1.041 -1.035 0.215 -0.834a7.438 7.438 0 0 0 -0.656 -5.379 7.525 7.525 0 0 0 -6.629 -3.949h-2.009a5 5 0 0 0 -0.258 -0.006zm3.656 6.181 4.33 4.303 0.004 0.005 0.018 0.018 2.031 2.018a0.775 0.775 0 0 1 0 1.1 0.787 0.787 0 0 1 -1.107 0L22.2 15.313a0.945 0.945 0 0 0 -1.33 0l-0.02 0.02a0.93 0.93 0 0 0 0 1.321l1.583 1.574a0.775 0.775 0 0 1 0 1.101 0.787 0.787 0 0 1 -1.024 0.074 0.945 0.945 0 0 0 -1.234 0.089 0.93 0.93 0 0 0 -0.077 1.226 0.775 0.775 0 0 1 -0.069 1.025 0.787 0.787 0 0 1 -1.037 0.063 0.945 0.945 0 0 0 -1.244 0.07 0.93 0.93 0 0 0 -0.08 1.238 0.787 0.787 0 0 1 -0.068 1.042 0.8 0.8 0 0 1 -1.125 0l-0.465 -0.463 0.131 -0.13a2.637 2.637 0 0 0 0 -3.744 2.662 2.662 0 0 0 -1.75 -0.771 2.625 2.625 0 0 0 -0.776 -1.739 2.662 2.662 0 0 0 -1.666 -0.766 2.625 2.625 0 0 0 -0.771 -1.656 2.675 2.675 0 0 0 -2.241 -0.75 2.666 2.666 0 0 0 -2.647 -1.956A5.875 5.875 0 0 1 8 7.366a5.962 5.962 0 0 1 4.476 -1.726L10.605 7.058a2.893 2.893 0 0 0 -0.55 4.066 2.916 2.916 0 0 0 4.072 0.551l2.361 -1.787zM11.736 8.553l3.924 -2.973h0.63a3.75 3.75 0 0 1 0.234 0.006h2.032a5.65 5.65 0 0 1 4.978 2.963c0.619 1.15 0.813 2.474 0.555 3.745L20.075 8.297a0.938 0.938 0 0 0 -0.674 -0.286h-3.226a0.938 0.938 0 0 0 -0.566 0.191l-2.612 1.979a1.041 1.041 0 0 1 -1.452 -0.196 1.017 1.017 0 0 1 0.194 -1.432Zm-4.192 9.944a0.775 0.775 0 0 1 0 -1.1l1.196 -1.189a0.787 0.787 0 0 1 1.107 0 0.775 0.775 0 0 1 0.01 1.09l-0.01 0.01 -1.196 1.189 -0.011 0.01a0.787 0.787 0 0 1 -1.096 -0.01Zm-0.614 -4.211a0.775 0.775 0 0 1 -0.013 1.089l-1.196 1.189a0.787 0.787 0 0 1 -1.107 0 0.775 0.775 0 0 1 0 -1.1l1.198 -1.188a0.787 0.787 0 0 1 1.107 0zm6.685 9.144a0.786 0.786 0 0 1 -1.107 0 0.775 0.775 0 0 1 0 -1.1l1.196 -1.19a0.787 0.787 0 0 1 1.107 0 0.775 0.775 0 0 1 0 1.1zm-2.526 -2.51a0.782 0.782 0 0 1 -1.107 0 0.775 0.775 0 0 1 -0.011 -1.09l0.011 -0.011 1.196 -1.188 0.01 -0.013a0.787 0.787 0 0 1 1.097 0.013 0.775 0.775 0 0 1 0 1.1z" fill="#D9DAD7" stroke="#D9DAD7" stroke-width="1.25"/></svg>