<?xml version="1.0" standalone="no"?>
<!DOCTYPE svg PUBLIC "-//W3C//DTD SVG 20010904//EN"
 "http://www.w3.org/TR/2001/REC-SVG-20010904/DTD/svg10.dtd">
<svg version="1.0" xmlns="http://www.w3.org/2000/svg"
 width="253.000000pt" height="143.000000pt" viewBox="0 0 253.000000 143.000000"
 preserveAspectRatio="xMidYMid meet">

<g transform="translate(0.000000,143.000000) scale(0.100000,-0.100000)"
fill="#000000" stroke="none">
<path d="M861 823 c-50 -26 -74 -64 -78 -125 -7 -99 54 -168 149 -168 47 0
118 24 118 40 0 4 -8 14 -17 23 -16 13 -21 14 -43 2 -42 -24 -86 -18 -122 14
-88 78 10 219 116 168 32 -15 35 -15 51 3 16 17 15 19 -10 36 -39 26 -122 29
-164 7z"/>
<path d="M1124 760 c-79 -32 -85 -164 -9 -198 65 -30 133 -2 155 63 30 90 -58
171 -146 135z m81 -54 c21 -15 25 -67 5 -90 -16 -21 -64 -20 -84 0 -52 51 20
133 79 90z"/>
<path d="M1548 753 c-40 -25 -48 -54 -48 -173 l0 -110 25 0 c23 0 25 3 25 50
0 47 1 50 19 40 39 -20 91 -12 122 19 24 24 29 38 29 76 0 57 -12 80 -50 100
-38 20 -88 19 -122 -2z m104 -50 c22 -20 24 -66 2 -87 -23 -24 -70 -20 -88 6
-21 30 -20 54 4 78 24 24 57 26 82 3z"/>
<path d="M1814 751 c-42 -26 -54 -66 -54 -182 0 -99 0 -99 25 -99 23 0 25 3
25 51 0 45 2 50 18 44 87 -38 162 9 162 101 0 28 -8 44 -34 70 -40 40 -92 46
-142 15z m106 -51 c24 -24 26 -57 3 -82 -34 -38 -103 -11 -103 40 0 56 61 81
100 42z"/>
<path d="M2083 760 c-67 -28 -80 -132 -23 -182 33 -31 95 -38 119 -15 11 10
14 10 18 0 3 -7 16 -13 30 -13 25 0 25 0 21 80 -3 70 -6 83 -29 106 -29 29
-97 41 -136 24z m89 -57 c38 -34 13 -103 -38 -103 -29 0 -64 33 -64 60 0 26
34 60 62 60 12 0 30 -7 40 -17z"/>
<path d="M2323 762 c-27 -3 -33 -8 -33 -28 0 -22 4 -24 50 -24 28 0 50 -2 50
-5 0 -3 -22 -36 -50 -72 -27 -36 -50 -70 -50 -74 0 -5 41 -9 90 -9 89 0 90 0
90 25 0 23 -4 25 -45 25 -25 0 -45 2 -45 5 0 3 18 30 40 59 59 77 55 87 -35
98 -16 2 -45 2 -62 0z"/>
<path d="M1320 655 l0 -105 25 0 c24 0 25 3 25 61 0 81 11 99 59 99 38 0 59
19 45 41 -8 13 -78 11 -92 -3 -9 -9 -12 -9 -12 0 0 7 -11 12 -25 12 l-25 0 0
-105z"/>
</g>
</svg>
