<?xml version="1.0" encoding="UTF-8"?>
<svg id="Capa_1" data-name="Capa 1" xmlns="http://www.w3.org/2000/svg" viewBox="0 0 1120.33 291.05">
  <defs>
    <style>
      .cls-1 {
        fill: #003736;
        stroke-width: 0px;
      }
    </style>
  </defs>
  <path class="cls-1" d="M0,0h1120.33v287.45c-4.24.27-8.56.5-12.88.82-2.04.15-3.89.88-6.09.72-1.85-.13-3.92-.44-5.59.62-.18.11-.65.02-.98.01-7.72-.18-15.39.56-23.05.88-7.37.31-14.72.4-22.09.48-7.49.08-14.99.09-22.48-.01-3.36-.04-6.71-.52-10.08-.63-3.32-.11-6.81.4-9.95-.14-3.42-.59-6.75-.41-10.12-.59-2.04-.11-4.05-.47-6.09-.66-2.04-.19-4.25.44-6.11-.67-.29-.17-.97-.02-1.47-.03-2.4-.05-4.73,0-7.12-.6-2.01-.51-4.53.32-6.54-.77-3.47.53-6.65-.76-10.08-.74-2.36.01-5.08.02-6.99-.75-2.39-.96-4.95-.24-7.35-1.15-2.08-.79-5-.45-7.48-.84-3.16-.5-6.2-1.46-9.38-1.8-3.58-.39-7.06-.99-10.55-1.61-5.26-.94-10.54-1.84-15.78-2.84-3.43-.66-6.8-1.45-10.27-2.06-2.94-.52-5.78-1.44-8.7-2.14-5.96-1.42-12.14-2.46-17.74-4.55-4.43.02-7.76-2.06-11.74-2.92-3.8-.82-7.31-2.26-11.1-3.11-4.56-1.03-8.4-3.23-13.26-3.71-1.12-1.6-3.91-1.26-5.64-2.34-1.51-.94-3.9-1.18-5.85-1.81-1.82-.59-3.55-1.29-5.34-1.91-1.93-.67-3.91-1.26-5.81-1.96-7.64-2.82-15.4-5.49-22.78-8.59-2.64-1.11-5.68-1.9-7.93-3.52-.78-.56-2.28-.61-3.34-1.03-1.09-.43-2.01-1.07-3.08-1.54-1.71-.74-3.67-1.24-5.2-2.12-7.2-4.13-15.8-6.94-22.63-11.41-2.74-.44-4.18-2.23-6.6-3-.42-.13-.93-.18-1.27-.37-1.69-.98-3.34-1.98-4.97-2.99-.31-.19-.46-.73-.68-.73-2.44.01-3.26-1.63-5.01-2.33-2.2-.88-4.24-2.07-5.93-3.38-1.54-1.2-3.62-1.9-5.11-3.2-1.49-1.3-4.42-1.82-5.95-3.11-1.3-1.1-3.05-1.74-4.37-2.77-1.24-.97-2.25-2.28-4.47-2.47-.34-1.85-3.14-1.99-4.56-3.11-1.42-1.12-3.06-2.11-4.56-3.18-.78-.56-1.3-.6-2.46-.22-5.27,1.74-10.67,3.29-16.02,4.91-2.74-.28-4.54,1.3-7,1.69-2.21.35-4.2,1.81-6.32,1.86-3.21.06-5.57,1.39-8.44,1.88-2.81.48-5.39,1.69-8.21,2.07-5.21.71-9.94,2.42-15.15,3.1-1.95.25-3.74,1.06-5.69,1.31-5.52.72-10.89,1.86-16.3,2.84-6.32,1.15-12.79,1.8-19.05,3.16-2.47.54-5.31.55-7.96.9-2.48.33-5.29.21-7.37,1.01-2.29.88-5.01-.54-6.93,1.03-.28.23-1.29.09-1.94.02-2.15-.21-4.08.34-6.09.66-1.99.32-4.26-.46-6.09.71-.18.11-.65,0-.98.02-4.19.23-8.49.14-12.54.78-3.4.54-6.9.1-10.07.69-5.07.94-10.17.03-15.1.66-9.19,1.18-18.4.43-27.58.59-9.15.16-18.32.09-27.48,0-2.86-.03-5.71-.52-8.58-.63-2.82-.11-5.86.42-8.44-.13-3.42-.74-6.81-.22-10.11-.63-3.56-.44-7.31-.19-10.71-1.28-.27-.09-.65-.03-.97-.05-4.19-.23-8.39-.42-12.57-.71-1.55-.11-3.04-.51-4.59-.65-1.41-.13-2.8-.4-4.12-.57-2.32-.3-4.7-.45-7.06-.78-4.34-.61-8.91-.63-13.1-1.53-3.11-.67-6.53-.39-9.45-1.75-1.63-.75-4.19.23-5.93-.9-4.67.08-8.66-1.89-13.24-2.08-1.24-1.16-3.09-.39-4.58-.7-1.61-.33-3.09-.96-4.69-1.33-1.48-.33-3.09-.39-4.56-.73-5.28-1.22-10.73-2.02-15.93-3.41-4.59-1.23-9.27-2.31-13.91-3.46-5.07-1.25-10.21-2.38-15.1-3.98-1.38-.45-2.9-.72-4.46-.95-1.86-.27-3.54-1.23-5.4-1.76-4.12-1.18-8.27-2.32-12.28-3.67-3.05-1.03-6.63-1.43-8.97-3.37-3.73.32-5.9-1.82-8.87-2.69-2.97-.87-6.11-1.64-8.72-2.91-3.22-1.56-7.08-2.22-10.2-3.86-3.09-1.63-6.67-2.86-10.09-4.01-4.05-1.36-7.9-2.97-11.71-4.55-3.74-1.56-7.29-3.41-10.99-5.05-3.41-1.51-6.55-3.3-10.24-4.54-2.11-.71-3.92-1.91-5.64-3.06-2.09-1.39-4.35-2.66-7.02-3.31-1.72-.42-1.95-1.68-3.68-2.07-1.43-.32-3.52-.7-3.51-2.3-2.05-.38-3.34-1.57-5.08-2.23-1.99-.76-3.57-1.86-5.13-2.86-4.73-3.04-10.37-5.34-14.75-8.65-2.01-.05-1.72-1.82-3.14-2.1-1.74-.34-2.61-1.28-3.8-2-2.31-1.4-4.12-3.14-6.97-4.18-2.5-.91-3.34-3.12-5.92-4.07-.25-1.44-2.61-1.33-3.62-2.33-.9-.88-1.67-1.89-3.31-2.52-1.66-.65-2.65-2.07-4.15-2.98-1.55-.95-2.89-1.94-4.18-3.07-1.14-1-2.38-2.15-3.95-3.01-1.68-.92-3.11-2.07-4.62-3.14-3.27-2.31-6.08-4.88-9.17-7.29-3.49-2.72-6.78-5.53-9.9-8.46-.83-.78-2.31-1.22-2.3-2.4-2.83-.46-2.82-2.79-5.11-3.67-.7-.27-1.16-.99-1.44-1.57-.42-.87-.77-1.67-2.34-1.86-.33-.04-.66-.37-.86-.62-2.62-3.13-5.64-6.05-9.1-8.77-1.42-1.12-2.64-2.44-3.52-3.8-1.64-2.55-4.79-4.38-6.62-6.72-2.07-2.66-4.68-5.05-6.8-7.67-3.03-3.74-6.68-7.26-9.43-11.09-.95-1.32-2.33-2.33-3.22-3.55-.81-1.11-1.11-2.37-2.16-3.52-1.81-1.97-3.27-4.12-4.87-6.18-1.26-1.63-2.49-3.39-3.34-5.23-.79-1.7-2.59-3.12-3.67-4.79-.51-.79-.87-1.61-1.38-2.36C6.88,10.71,3.78,5.98,1.21,1.09c-.16-.3-.57-.53-1.21-1.09Z"/>
</svg>