<?xml version="1.0" encoding="UTF-8"?>
<svg id="Capa_1" data-name="Capa 1" xmlns="http://www.w3.org/2000/svg" viewBox="0 0 1120.33 421.96">
  <defs>
    <style>
      .cls-1 {
        fill: #003736;
        stroke-width: 0px;
      }
    </style>
  </defs>
  <path class="cls-1" d="M0,0h1120.33v416.73c-4.24.39-8.56.73-12.88,1.19-2.04.22-3.89,1.28-6.09,1.05-1.85-.19-3.92-.64-5.59.9-.18.17-.65.03-.98.02-7.72-.26-15.39.81-23.05,1.27-7.37.45-14.72.58-22.09.7-7.49.12-14.99.13-22.48-.02-3.36-.07-6.71-.75-10.08-.92-3.32-.17-6.81.58-9.95-.2-3.42-.85-6.75-.59-10.12-.86-2.04-.17-4.05-.68-6.09-.95-2.04-.28-4.25.64-6.11-.98-.29-.25-.97-.02-1.47-.04-2.4-.07-4.73,0-7.12-.87-2.01-.73-4.53.46-6.54-1.12-3.47.77-6.65-1.1-10.08-1.07-2.36.02-5.08.03-6.99-1.09-2.39-1.39-4.95-.35-7.35-1.67-2.08-1.14-5-.65-7.48-1.21-3.16-.72-6.2-2.11-9.38-2.61-3.58-.56-7.06-1.43-10.55-2.33-5.26-1.36-10.54-2.67-15.78-4.12-3.43-.95-6.8-2.1-10.27-2.99-2.94-.75-5.78-2.09-8.7-3.1-5.96-2.05-12.14-3.57-17.74-6.59-4.43.03-7.76-2.99-11.74-4.24-3.8-1.19-7.31-3.28-11.1-4.51-4.56-1.49-8.4-4.68-13.26-5.38-1.12-2.31-3.91-1.83-5.64-3.39-1.51-1.36-3.9-1.71-5.85-2.62-1.82-.85-3.55-1.87-5.34-2.78-1.93-.97-3.91-1.82-5.81-2.84-7.64-4.08-15.4-7.96-22.78-12.46-2.64-1.61-5.68-2.75-7.93-5.11-.78-.81-2.28-.89-3.34-1.49-1.09-.63-2.01-1.56-3.08-2.23-1.71-1.07-3.67-1.8-5.2-3.07-7.2-5.99-15.8-10.06-22.63-16.54-2.74-.64-4.18-3.23-6.6-4.35-.42-.19-.93-.26-1.27-.54-1.69-1.41-3.34-2.86-4.97-4.34-.31-.28-.46-1.06-.68-1.05-2.44.01-3.26-2.36-5.01-3.37-2.2-1.27-4.24-3-5.93-4.91-1.54-1.74-3.62-2.75-5.11-4.64-1.49-1.89-4.42-2.64-5.95-4.51-1.3-1.6-3.05-2.52-4.37-4.01-1.24-1.4-2.25-3.31-4.47-3.58-.34-2.68-3.14-2.88-4.56-4.5-1.42-1.63-3.06-3.06-4.56-4.62-.78-.81-1.3-.87-2.46-.31-5.27,2.52-10.67,4.77-16.02,7.13-2.74-.41-4.54,1.88-7,2.44-2.21.51-4.2,2.63-6.32,2.69-3.21.09-5.57,2.01-8.44,2.72-2.81.7-5.39,2.45-8.21,3.01-5.21,1.03-9.94,3.52-15.15,4.5-1.95.37-3.74,1.53-5.69,1.9-5.52,1.04-10.89,2.7-16.3,4.12-6.32,1.67-12.79,2.61-19.05,4.59-2.47.78-5.31.79-7.96,1.3-2.48.48-5.29.3-7.37,1.46-2.29,1.27-5.01-.78-6.93,1.5-.28.33-1.29.13-1.94.03-2.15-.31-4.08.49-6.09.96-1.99.47-4.26-.66-6.09,1.02-.18.17-.65,0-.98.03-4.19.33-8.49.21-12.54,1.13-3.4.78-6.9.14-10.07,1-5.07,1.37-10.17.04-15.1.95-9.19,1.7-18.4.62-27.58.85-9.15.23-18.32.13-27.48,0-2.86-.04-5.71-.75-8.58-.92-2.82-.17-5.86.61-8.44-.2-3.42-1.07-6.81-.32-10.11-.91-3.56-.64-7.31-.28-10.71-1.85-.27-.13-.65-.04-.97-.07-4.19-.33-8.39-.61-12.57-1.03-1.55-.15-3.04-.74-4.59-.94-1.41-.18-2.8-.59-4.12-.83-2.32-.43-4.7-.65-7.06-1.13-4.34-.89-8.91-.92-13.1-2.22-3.11-.96-6.53-.57-9.45-2.53-1.63-1.09-4.19.34-5.93-1.3-4.67.12-8.66-2.73-13.24-3.02-1.24-1.68-3.09-.57-4.58-1.02-1.61-.48-3.09-1.4-4.69-1.92-1.48-.48-3.09-.56-4.56-1.05-5.28-1.76-10.73-2.93-15.93-4.94-4.59-1.78-9.27-3.35-13.91-5.01-5.07-1.81-10.21-3.46-15.1-5.77-1.38-.65-2.9-1.05-4.46-1.37-1.86-.39-3.54-1.78-5.4-2.56-4.12-1.71-8.27-3.37-12.28-5.32-3.05-1.49-6.63-2.07-8.97-4.89-3.73.46-5.9-2.64-8.87-3.91-2.97-1.26-6.11-2.38-8.72-4.21-3.22-2.26-7.08-3.21-10.2-5.6-3.09-2.36-6.67-4.14-10.09-5.81-4.05-1.98-7.9-4.3-11.71-6.6-3.74-2.26-7.29-4.94-10.99-7.33-3.41-2.2-6.55-4.78-10.24-6.58-2.11-1.03-3.92-2.77-5.64-4.43-2.09-2.01-4.35-3.86-7.02-4.79-1.72-.6-1.95-2.44-3.68-3-1.43-.46-3.52-1.02-3.51-3.34-2.05-.55-3.34-2.28-5.08-3.23-1.99-1.1-3.57-2.7-5.13-4.15-4.73-4.41-10.37-7.74-14.75-12.54-2.01-.07-1.72-2.64-3.14-3.04-1.74-.49-2.61-1.85-3.8-2.9-2.31-2.02-4.12-4.55-6.97-6.06-2.5-1.32-3.34-4.52-5.92-5.89-.25-2.09-2.61-1.93-3.62-3.38-.9-1.28-1.67-2.73-3.31-3.66-1.66-.94-2.65-3-4.15-4.33-1.55-1.37-2.89-2.81-4.18-4.45-1.14-1.45-2.38-3.11-3.95-4.36-1.68-1.34-3.11-3-4.62-4.55-3.27-3.34-6.08-7.08-9.17-10.57-3.49-3.94-6.78-8.01-9.9-12.26-.83-1.13-2.31-1.78-2.3-3.49-2.83-.66-2.82-4.05-5.11-5.32-.7-.39-1.16-1.43-1.44-2.27-.42-1.27-.77-2.42-2.34-2.69-.33-.06-.66-.54-.86-.89-2.62-4.54-5.64-8.76-9.1-12.71-1.42-1.63-2.64-3.54-3.52-5.51-1.64-3.69-4.79-6.35-6.62-9.75-2.07-3.85-4.68-7.33-6.8-11.13-3.03-5.43-6.68-10.52-9.43-16.07-.95-1.92-2.33-3.38-3.22-5.15-.81-1.61-1.11-3.44-2.16-5.1-1.81-2.86-3.27-5.97-4.87-8.96-1.26-2.37-2.49-4.92-3.34-7.58-.79-2.47-2.59-4.52-3.67-6.95-.51-1.14-.87-2.34-1.38-3.42C6.88,15.53,3.78,8.68,1.21,1.58c-.16-.43-.57-.77-1.21-1.58Z"/>
</svg>