<?xml version="1.0" encoding="UTF-8"?>
<svg id="Capa_1" data-name="Capa 1" xmlns="http://www.w3.org/2000/svg" viewBox="0 0 466.36 416.29">
  <defs>
    <style>
      .cls-1 {
        fill: #043A39;
        stroke-width: 0px;
      }
    </style>
  </defs>
  <path class="cls-1" d="M124.81,0c7.98,0,15.97,0,23.95,0,.81.38,1.59.98,2.44,1.12,28.3,4.84,54.18,15.33,76.74,33.28,7.09,5.64,13.53,12.11,19.99,17.95,8-5.06,15.65-10.39,23.74-14.94,49.97-28.08,107.49-21.14,146.32,17.98,30.52,30.75,44.89,68.83,47.82,111.4,2.8,40.68-5.2,79.63-21.9,116.7-20.16,44.74-49.82,81.68-92.59,106.64-40.66,23.73-85.31,29.67-131.34,24.37-55.3-6.36-103.1-30.42-143.66-67.76C31.11,305.11,7.96,251.91,1.39,191.36c-3.67-33.81-.23-67.06,11.89-99.03C30.49,46.94,62.14,16.92,109.17,3.69c5.15-1.45,10.43-2.47,15.65-3.69Z"/>
</svg>